<svg width="32" height="32" viewBox="0 0 32 32" fill="none" xmlns="http://www.w3.org/2000/svg">
  <defs>
    <linearGradient id="g" x1="0" y1="0" x2="1" y2="1">
      <stop offset="0%" stop-color="#6366f1"/>
      <stop offset="100%" stop-color="#7c3aed"/>
    </linearGradient>
  </defs>
  <rect width="32" height="32" rx="8" fill="url(#g)"/>
  <path d="M9 7h9l5 5v13a1 1 0 01-1 1H9a1 1 0 01-1-1V8a1 1 0 011-1z" fill="rgba(255,255,255,0.92)"/>
  <path d="M18 7l5 5h-4a1 1 0 01-1-1V7z" fill="rgba(99,102,241,0.5)"/>
  <line x1="11" y1="14" x2="21" y2="14" stroke="rgba(99,102,241,0.7)" stroke-width="1.5" stroke-linecap="round"/>
  <line x1="11" y1="17" x2="21" y2="17" stroke="rgba(99,102,241,0.7)" stroke-width="1.5" stroke-linecap="round"/>
  <line x1="11" y1="20" x2="17" y2="20" stroke="rgba(99,102,241,0.7)" stroke-width="1.5" stroke-linecap="round"/>
  <path d="M24 3 L24.6 5.4 L27 6 L24.6 6.6 L24 9 L23.4 6.6 L21 6 L23.4 5.4 Z" fill="rgba(255,255,255,0.95)"/>
</svg>
